%TF.GenerationSoftware,KiCad,Pcbnew,7.0.11*%
%TF.CreationDate,2025-11-07T14:33:39+09:00*%
%TF.ProjectId,motorDrive,6d6f746f-7244-4726-9976-652e6b696361,rev?*%
%TF.SameCoordinates,Original*%
%TF.FileFunction,Soldermask,Top*%
%TF.FilePolarity,Negative*%
%FSLAX46Y46*%
G04 Gerber Fmt 4.6, Leading zero omitted, Abs format (unit mm)*
G04 Created by KiCad (PCBNEW 7.0.11) date 2025-11-07 14:33:39*
%MOMM*%
%LPD*%
G01*
G04 APERTURE LIST*
G04 Aperture macros list*
%AMRoundRect*
0 Rectangle with rounded corners*
0 $1 Rounding radius*
0 $2 $3 $4 $5 $6 $7 $8 $9 X,Y pos of 4 corners*
0 Add a 4 corners polygon primitive as box body*
4,1,4,$2,$3,$4,$5,$6,$7,$8,$9,$2,$3,0*
0 Add four circle primitives for the rounded corners*
1,1,$1+$1,$2,$3*
1,1,$1+$1,$4,$5*
1,1,$1+$1,$6,$7*
1,1,$1+$1,$8,$9*
0 Add four rect primitives between the rounded corners*
20,1,$1+$1,$2,$3,$4,$5,0*
20,1,$1+$1,$4,$5,$6,$7,0*
20,1,$1+$1,$6,$7,$8,$9,0*
20,1,$1+$1,$8,$9,$2,$3,0*%
G04 Aperture macros list end*
%ADD10RoundRect,0.225000X0.225000X0.250000X-0.225000X0.250000X-0.225000X-0.250000X0.225000X-0.250000X0*%
%ADD11R,0.650000X1.525000*%
%ADD12R,3.800000X7.000000*%
%ADD13O,3.800000X8.000000*%
%ADD14RoundRect,0.225000X-0.225000X-0.250000X0.225000X-0.250000X0.225000X0.250000X-0.225000X0.250000X0*%
%ADD15R,1.050000X0.600000*%
%ADD16R,1.800000X1.800000*%
%ADD17O,1.800000X1.800000*%
%ADD18RoundRect,0.200000X0.275000X-0.200000X0.275000X0.200000X-0.275000X0.200000X-0.275000X-0.200000X0*%
%ADD19RoundRect,0.200000X-0.275000X0.200000X-0.275000X-0.200000X0.275000X-0.200000X0.275000X0.200000X0*%
%ADD20RoundRect,0.218750X0.256250X-0.218750X0.256250X0.218750X-0.256250X0.218750X-0.256250X-0.218750X0*%
%ADD21RoundRect,0.250000X0.550000X-1.500000X0.550000X1.500000X-0.550000X1.500000X-0.550000X-1.500000X0*%
%ADD22RoundRect,0.225000X0.250000X-0.225000X0.250000X0.225000X-0.250000X0.225000X-0.250000X-0.225000X0*%
%ADD23RoundRect,0.225000X-0.250000X0.225000X-0.250000X-0.225000X0.250000X-0.225000X0.250000X0.225000X0*%
%ADD24C,3.200000*%
%ADD25RoundRect,0.250000X-1.500000X-0.550000X1.500000X-0.550000X1.500000X0.550000X-1.500000X0.550000X0*%
%ADD26R,3.800000X3.800000*%
%ADD27C,3.800000*%
%ADD28R,0.450000X1.650000*%
%ADD29R,5.000000X3.000000*%
%ADD30RoundRect,0.250000X-0.550000X1.500000X-0.550000X-1.500000X0.550000X-1.500000X0.550000X1.500000X0*%
%ADD31R,1.000000X0.300000*%
%ADD32R,1.300000X2.000000*%
G04 APERTURE END LIST*
D10*
%TO.C,C210*%
X119520000Y-58420000D03*
X117970000Y-58420000D03*
%TD*%
D11*
%TO.C,IC302*%
X132969000Y-51136000D03*
X131699000Y-51136000D03*
X130429000Y-51136000D03*
X129159000Y-51136000D03*
X129159000Y-56560000D03*
X130429000Y-56560000D03*
X131699000Y-56560000D03*
X132969000Y-56560000D03*
%TD*%
D12*
%TO.C,J104*%
X135850000Y-44093000D03*
D13*
X130850000Y-44093000D03*
%TD*%
D14*
%TO.C,C506*%
X130924000Y-89662000D03*
X132474000Y-89662000D03*
%TD*%
%TO.C,C405*%
X144132000Y-61468000D03*
X145682000Y-61468000D03*
%TD*%
D10*
%TO.C,C302*%
X139586000Y-61468000D03*
X138036000Y-61468000D03*
%TD*%
D15*
%TO.C,Q501*%
X136736000Y-78039000D03*
X136736000Y-76139000D03*
X134536000Y-77089000D03*
%TD*%
D12*
%TO.C,J103*%
X122301000Y-44093000D03*
D13*
X117301000Y-44093000D03*
%TD*%
D11*
%TO.C,IC502*%
X134493000Y-99994000D03*
X135763000Y-99994000D03*
X137033000Y-99994000D03*
X138303000Y-99994000D03*
X138303000Y-94570000D03*
X137033000Y-94570000D03*
X135763000Y-94570000D03*
X134493000Y-94570000D03*
%TD*%
D16*
%TO.C,D101*%
X115951000Y-106807000D03*
D17*
X126111000Y-106807000D03*
%TD*%
D18*
%TO.C,R604*%
X143383000Y-78168000D03*
X143383000Y-76518000D03*
%TD*%
D19*
%TO.C,R607*%
X141859000Y-76518000D03*
X141859000Y-78168000D03*
%TD*%
D18*
%TO.C,R201*%
X113919000Y-74739000D03*
X113919000Y-73089000D03*
%TD*%
D15*
%TO.C,Q601*%
X150325000Y-78039000D03*
X150325000Y-76139000D03*
X148125000Y-77089000D03*
%TD*%
D10*
%TO.C,C202*%
X125997000Y-61468000D03*
X124447000Y-61468000D03*
%TD*%
D14*
%TO.C,C602*%
X141465000Y-89662000D03*
X143015000Y-89662000D03*
%TD*%
D10*
%TO.C,C410*%
X146698000Y-58420000D03*
X145148000Y-58420000D03*
%TD*%
D19*
%TO.C,R203*%
X120777000Y-72962000D03*
X120777000Y-74612000D03*
%TD*%
D14*
%TO.C,C608*%
X150990000Y-92710000D03*
X152540000Y-92710000D03*
%TD*%
D11*
%TO.C,IC602*%
X148082000Y-99994000D03*
X149352000Y-99994000D03*
X150622000Y-99994000D03*
X151892000Y-99994000D03*
X151892000Y-94570000D03*
X150622000Y-94570000D03*
X149352000Y-94570000D03*
X148082000Y-94570000D03*
%TD*%
D15*
%TO.C,Q201*%
X117010000Y-73091000D03*
X117010000Y-74991000D03*
X119210000Y-74041000D03*
%TD*%
D19*
%TO.C,R304*%
X137668000Y-72962000D03*
X137668000Y-74612000D03*
%TD*%
D10*
%TO.C,C306*%
X136538000Y-61468000D03*
X134988000Y-61468000D03*
%TD*%
D18*
%TO.C,R405*%
X149733000Y-74612000D03*
X149733000Y-72962000D03*
%TD*%
D10*
%TO.C,C206*%
X122949000Y-61468000D03*
X121399000Y-61468000D03*
%TD*%
D15*
%TO.C,Q401*%
X144315000Y-73091000D03*
X144315000Y-74991000D03*
X146515000Y-74041000D03*
%TD*%
D18*
%TO.C,R205*%
X122301000Y-74612000D03*
X122301000Y-72962000D03*
%TD*%
D14*
%TO.C,C508*%
X137401000Y-92710000D03*
X138951000Y-92710000D03*
%TD*%
%TO.C,C606*%
X144513000Y-89662000D03*
X146063000Y-89662000D03*
%TD*%
D20*
%TO.C,D102*%
X107950000Y-99593500D03*
X107950000Y-98018500D03*
%TD*%
D14*
%TO.C,C205*%
X116827000Y-61341000D03*
X118377000Y-61341000D03*
%TD*%
D10*
%TO.C,C408*%
X143650000Y-58420000D03*
X142100000Y-58420000D03*
%TD*%
%TO.C,C308*%
X130061000Y-58420000D03*
X128511000Y-58420000D03*
%TD*%
D21*
%TO.C,C607*%
X143510000Y-98558000D03*
X143510000Y-92958000D03*
%TD*%
D10*
%TO.C,C208*%
X116472000Y-58420000D03*
X114922000Y-58420000D03*
%TD*%
D22*
%TO.C,C204*%
X113919000Y-65545000D03*
X113919000Y-63995000D03*
%TD*%
D19*
%TO.C,R505*%
X131318000Y-76518000D03*
X131318000Y-78168000D03*
%TD*%
D14*
%TO.C,C510*%
X134353000Y-92710000D03*
X135903000Y-92710000D03*
%TD*%
D23*
%TO.C,C601*%
X147574000Y-89649000D03*
X147574000Y-91199000D03*
%TD*%
D18*
%TO.C,R407*%
X152781000Y-74612000D03*
X152781000Y-72962000D03*
%TD*%
D23*
%TO.C,C501*%
X133985000Y-89649000D03*
X133985000Y-91199000D03*
%TD*%
%TO.C,C403*%
X141097000Y-66916000D03*
X141097000Y-68466000D03*
%TD*%
D24*
%TO.C,REF\u002A\u002A*%
X109220000Y-106680000D03*
%TD*%
D19*
%TO.C,R402*%
X142621000Y-72962000D03*
X142621000Y-74612000D03*
%TD*%
%TO.C,R605*%
X144907000Y-76518000D03*
X144907000Y-78168000D03*
%TD*%
%TO.C,R204*%
X123825000Y-72962000D03*
X123825000Y-74612000D03*
%TD*%
D18*
%TO.C,R301*%
X127508000Y-74612000D03*
X127508000Y-72962000D03*
%TD*%
D10*
%TO.C,C402*%
X153175000Y-61468000D03*
X151625000Y-61468000D03*
%TD*%
D18*
%TO.C,R101*%
X109601000Y-99631000D03*
X109601000Y-97981000D03*
%TD*%
D10*
%TO.C,C406*%
X150127000Y-61468000D03*
X148577000Y-61468000D03*
%TD*%
%TO.C,C310*%
X133109000Y-58420000D03*
X131559000Y-58420000D03*
%TD*%
D23*
%TO.C,C303*%
X127508000Y-66916000D03*
X127508000Y-68466000D03*
%TD*%
D25*
%TO.C,C101*%
X117723000Y-95123000D03*
X123323000Y-95123000D03*
%TD*%
D26*
%TO.C,J101*%
X122555000Y-101981000D03*
D27*
X117555000Y-101981000D03*
%TD*%
D18*
%TO.C,R306*%
X127508000Y-71564000D03*
X127508000Y-69914000D03*
%TD*%
D19*
%TO.C,R404*%
X151257000Y-72962000D03*
X151257000Y-74612000D03*
%TD*%
D12*
%TO.C,J107*%
X145328000Y-107164000D03*
D13*
X150328000Y-107164000D03*
%TD*%
D22*
%TO.C,C201*%
X119888000Y-61481000D03*
X119888000Y-59931000D03*
%TD*%
D18*
%TO.C,R305*%
X136144000Y-74612000D03*
X136144000Y-72962000D03*
%TD*%
D19*
%TO.C,R302*%
X129032000Y-72962000D03*
X129032000Y-74612000D03*
%TD*%
%TO.C,R506*%
X139954000Y-79566000D03*
X139954000Y-81216000D03*
%TD*%
D18*
%TO.C,R502*%
X138430000Y-78168000D03*
X138430000Y-76518000D03*
%TD*%
D28*
%TO.C,IC501*%
X128998000Y-86870000D03*
X129648000Y-86870000D03*
X130298000Y-86870000D03*
X130948000Y-86870000D03*
X131598000Y-86870000D03*
X132248000Y-86870000D03*
X132898000Y-86870000D03*
X133548000Y-86870000D03*
X134198000Y-86870000D03*
X134848000Y-86870000D03*
X135498000Y-86870000D03*
X136148000Y-86870000D03*
X136798000Y-86870000D03*
X137448000Y-86870000D03*
X137448000Y-80770000D03*
X136798000Y-80770000D03*
X136148000Y-80770000D03*
X135498000Y-80770000D03*
X134848000Y-80770000D03*
X134198000Y-80770000D03*
X133548000Y-80770000D03*
X132898000Y-80770000D03*
X132248000Y-80770000D03*
X131598000Y-80770000D03*
X130948000Y-80770000D03*
X130298000Y-80770000D03*
X129648000Y-80770000D03*
X128998000Y-80770000D03*
D29*
X133223000Y-83820000D03*
%TD*%
D24*
%TO.C,REF\u002A\u002A*%
X109220000Y-45720000D03*
%TD*%
%TO.C,REF\u002A\u002A*%
X158750000Y-45720000D03*
%TD*%
D19*
%TO.C,R202*%
X115443000Y-73089000D03*
X115443000Y-74739000D03*
%TD*%
D28*
%TO.C,IC301*%
X138464000Y-64260000D03*
X137814000Y-64260000D03*
X137164000Y-64260000D03*
X136514000Y-64260000D03*
X135864000Y-64260000D03*
X135214000Y-64260000D03*
X134564000Y-64260000D03*
X133914000Y-64260000D03*
X133264000Y-64260000D03*
X132614000Y-64260000D03*
X131964000Y-64260000D03*
X131314000Y-64260000D03*
X130664000Y-64260000D03*
X130014000Y-64260000D03*
X130014000Y-70360000D03*
X130664000Y-70360000D03*
X131314000Y-70360000D03*
X131964000Y-70360000D03*
X132614000Y-70360000D03*
X133264000Y-70360000D03*
X133914000Y-70360000D03*
X134564000Y-70360000D03*
X135214000Y-70360000D03*
X135864000Y-70360000D03*
X136514000Y-70360000D03*
X137164000Y-70360000D03*
X137814000Y-70360000D03*
X138464000Y-70360000D03*
D29*
X134239000Y-67310000D03*
%TD*%
D18*
%TO.C,R401*%
X141097000Y-74612000D03*
X141097000Y-72962000D03*
%TD*%
D23*
%TO.C,C604*%
X153543000Y-85712000D03*
X153543000Y-87262000D03*
%TD*%
D18*
%TO.C,R406*%
X141097000Y-71564000D03*
X141097000Y-69914000D03*
%TD*%
D14*
%TO.C,C502*%
X127876000Y-89662000D03*
X129426000Y-89662000D03*
%TD*%
D22*
%TO.C,C401*%
X147193000Y-61481000D03*
X147193000Y-59931000D03*
%TD*%
D11*
%TO.C,IC202*%
X119380000Y-51136000D03*
X118110000Y-51136000D03*
X116840000Y-51136000D03*
X115570000Y-51136000D03*
X115570000Y-56560000D03*
X116840000Y-56560000D03*
X118110000Y-56560000D03*
X119380000Y-56560000D03*
%TD*%
D19*
%TO.C,R303*%
X134620000Y-72962000D03*
X134620000Y-74612000D03*
%TD*%
D18*
%TO.C,R207*%
X125349000Y-74612000D03*
X125349000Y-72962000D03*
%TD*%
D30*
%TO.C,C407*%
X151130000Y-52572000D03*
X151130000Y-58172000D03*
%TD*%
D28*
%TO.C,IC401*%
X152053000Y-64260000D03*
X151403000Y-64260000D03*
X150753000Y-64260000D03*
X150103000Y-64260000D03*
X149453000Y-64260000D03*
X148803000Y-64260000D03*
X148153000Y-64260000D03*
X147503000Y-64260000D03*
X146853000Y-64260000D03*
X146203000Y-64260000D03*
X145553000Y-64260000D03*
X144903000Y-64260000D03*
X144253000Y-64260000D03*
X143603000Y-64260000D03*
X143603000Y-70360000D03*
X144253000Y-70360000D03*
X144903000Y-70360000D03*
X145553000Y-70360000D03*
X146203000Y-70360000D03*
X146853000Y-70360000D03*
X147503000Y-70360000D03*
X148153000Y-70360000D03*
X148803000Y-70360000D03*
X149453000Y-70360000D03*
X150103000Y-70360000D03*
X150753000Y-70360000D03*
X151403000Y-70360000D03*
X152053000Y-70360000D03*
D29*
X147828000Y-67310000D03*
%TD*%
D19*
%TO.C,R606*%
X153543000Y-79566000D03*
X153543000Y-81216000D03*
%TD*%
D18*
%TO.C,R206*%
X113919000Y-71691000D03*
X113919000Y-70041000D03*
%TD*%
D21*
%TO.C,C507*%
X129921000Y-98558000D03*
X129921000Y-92958000D03*
%TD*%
D19*
%TO.C,R507*%
X128270000Y-76518000D03*
X128270000Y-78168000D03*
%TD*%
%TO.C,R403*%
X148209000Y-72962000D03*
X148209000Y-74612000D03*
%TD*%
D12*
%TO.C,J105*%
X149479000Y-44093000D03*
D13*
X144479000Y-44093000D03*
%TD*%
D23*
%TO.C,C504*%
X139954000Y-85712000D03*
X139954000Y-87262000D03*
%TD*%
D18*
%TO.C,R503*%
X132842000Y-78168000D03*
X132842000Y-76518000D03*
%TD*%
D23*
%TO.C,C203*%
X113919000Y-67043000D03*
X113919000Y-68593000D03*
%TD*%
D19*
%TO.C,R601*%
X153543000Y-76518000D03*
X153543000Y-78168000D03*
%TD*%
D14*
%TO.C,C305*%
X130543000Y-61468000D03*
X132093000Y-61468000D03*
%TD*%
D10*
%TO.C,C605*%
X150635000Y-89662000D03*
X149085000Y-89662000D03*
%TD*%
%TO.C,C505*%
X137046000Y-89662000D03*
X135496000Y-89662000D03*
%TD*%
D31*
%TO.C,J102*%
X111384000Y-80314000D03*
X111384000Y-80814000D03*
X111384000Y-81314000D03*
X111384000Y-81814000D03*
X111384000Y-82314000D03*
X111384000Y-82814000D03*
X111384000Y-83314000D03*
X111384000Y-83814000D03*
X111384000Y-84314000D03*
X111384000Y-84814000D03*
X111384000Y-85314000D03*
X111384000Y-85814000D03*
X111384000Y-86314000D03*
X111384000Y-86814000D03*
X111384000Y-87314000D03*
X111384000Y-87814000D03*
X111384000Y-88314000D03*
X111384000Y-88814000D03*
X111384000Y-89314000D03*
X111384000Y-89814000D03*
X111384000Y-90314000D03*
X111384000Y-90814000D03*
D32*
X108684000Y-78014000D03*
X108684000Y-93114000D03*
%TD*%
D18*
%TO.C,R307*%
X139192000Y-74612000D03*
X139192000Y-72962000D03*
%TD*%
D11*
%TO.C,IC402*%
X146558000Y-51136000D03*
X145288000Y-51136000D03*
X144018000Y-51136000D03*
X142748000Y-51136000D03*
X142748000Y-56560000D03*
X144018000Y-56560000D03*
X145288000Y-56560000D03*
X146558000Y-56560000D03*
%TD*%
D28*
%TO.C,IC201*%
X124875000Y-64260000D03*
X124225000Y-64260000D03*
X123575000Y-64260000D03*
X122925000Y-64260000D03*
X122275000Y-64260000D03*
X121625000Y-64260000D03*
X120975000Y-64260000D03*
X120325000Y-64260000D03*
X119675000Y-64260000D03*
X119025000Y-64260000D03*
X118375000Y-64260000D03*
X117725000Y-64260000D03*
X117075000Y-64260000D03*
X116425000Y-64260000D03*
X116425000Y-70360000D03*
X117075000Y-70360000D03*
X117725000Y-70360000D03*
X118375000Y-70360000D03*
X119025000Y-70360000D03*
X119675000Y-70360000D03*
X120325000Y-70360000D03*
X120975000Y-70360000D03*
X121625000Y-70360000D03*
X122275000Y-70360000D03*
X122925000Y-70360000D03*
X123575000Y-70360000D03*
X124225000Y-70360000D03*
X124875000Y-70360000D03*
D29*
X120650000Y-67310000D03*
%TD*%
D28*
%TO.C,IC601*%
X142587000Y-86870000D03*
X143237000Y-86870000D03*
X143887000Y-86870000D03*
X144537000Y-86870000D03*
X145187000Y-86870000D03*
X145837000Y-86870000D03*
X146487000Y-86870000D03*
X147137000Y-86870000D03*
X147787000Y-86870000D03*
X148437000Y-86870000D03*
X149087000Y-86870000D03*
X149737000Y-86870000D03*
X150387000Y-86870000D03*
X151037000Y-86870000D03*
X151037000Y-80770000D03*
X150387000Y-80770000D03*
X149737000Y-80770000D03*
X149087000Y-80770000D03*
X148437000Y-80770000D03*
X147787000Y-80770000D03*
X147137000Y-80770000D03*
X146487000Y-80770000D03*
X145837000Y-80770000D03*
X145187000Y-80770000D03*
X144537000Y-80770000D03*
X143887000Y-80770000D03*
X143237000Y-80770000D03*
X142587000Y-80770000D03*
D29*
X146812000Y-83820000D03*
%TD*%
D22*
%TO.C,C503*%
X139954000Y-84214000D03*
X139954000Y-82664000D03*
%TD*%
D12*
%TO.C,J106*%
X131739000Y-107164000D03*
D13*
X136739000Y-107164000D03*
%TD*%
D19*
%TO.C,R501*%
X139954000Y-76518000D03*
X139954000Y-78168000D03*
%TD*%
D18*
%TO.C,R504*%
X129794000Y-78168000D03*
X129794000Y-76518000D03*
%TD*%
D22*
%TO.C,C304*%
X127508000Y-65418000D03*
X127508000Y-63868000D03*
%TD*%
D18*
%TO.C,R603*%
X146431000Y-78168000D03*
X146431000Y-76518000D03*
%TD*%
D22*
%TO.C,C404*%
X141097000Y-65418000D03*
X141097000Y-63868000D03*
%TD*%
D30*
%TO.C,C207*%
X123952000Y-52826000D03*
X123952000Y-58426000D03*
%TD*%
D14*
%TO.C,C610*%
X147942000Y-92710000D03*
X149492000Y-92710000D03*
%TD*%
D22*
%TO.C,C301*%
X133604000Y-61481000D03*
X133604000Y-59931000D03*
%TD*%
D24*
%TO.C,REF\u002A\u002A*%
X158750000Y-106680000D03*
%TD*%
D30*
%TO.C,C307*%
X137541000Y-52572000D03*
X137541000Y-58172000D03*
%TD*%
D22*
%TO.C,C603*%
X153543000Y-84214000D03*
X153543000Y-82664000D03*
%TD*%
D18*
%TO.C,R602*%
X152019000Y-78168000D03*
X152019000Y-76518000D03*
%TD*%
D15*
%TO.C,Q301*%
X130726000Y-73091000D03*
X130726000Y-74991000D03*
X132926000Y-74041000D03*
%TD*%
M02*
